<svg width="799.9999999999999" height="799.9999999999999" xmlns="http://www.w3.org/2000/svg">

 <g>
  <title>Layer 1</title>
  <ellipse stroke="#3547ad" stroke-width="20" ry="386.87497" rx="389.00001" id="svg_2" cy="393.62502" cx="398.75001" fill="#fff"/>
  <line id="svg_4" y2="552.50027" x2="756.8751" y1="557.50027" x1="46.8749" stroke-width="20" stroke="#3547ad" fill="none"/>
  <rect id="svg_9" height="268.75008" width="117.50003" y="275.00019" x="195.62494" stroke-width="20" stroke="#3547ad" fill="#3547ad"/>
  <rect id="svg_11" height="21.25001" width="1.25" y="343.75021" x="255.62496" stroke-width="20" stroke="#3547ad" fill="#3547ad"/>
  <rect id="svg_12" height="268.75008" width="117.50003" y="268.75019" x="554.37504" stroke-width="20" stroke="#3547ad" fill="#3547ad"/>
  <rect stroke="#3f51ba" id="svg_13" height="366.25011" width="130.00004" y="177.50017" x="360.62499" stroke-width="20" fill="#3f51ba"/>
  <ellipse stroke="#f9fafc" ry="6.25" rx="5.625" id="svg_15" cy="302.5002" cx="222.49995" stroke-width="20" fill="#ffffff"/>
  <ellipse stroke="#f9fafc" ry="6.25" rx="5.625" id="svg_18" cy="303.7502" cx="284.99997" stroke-width="20" fill="#ffffff"/>
  <ellipse stroke="#f9fafc" ry="6.25" rx="5.625" id="svg_19" cy="362.50022" cx="221.24995" stroke-width="20" fill="#ffffff"/>
  <ellipse stroke="#f9fafc" ry="6.25" rx="5.625" id="svg_20" cy="363.75022" cx="281.24997" stroke-width="20" fill="#ffffff"/>
  <ellipse stroke="#f9fafc" ry="6.25" rx="5.625" id="svg_21" cy="425.00024" cx="224.99995" stroke-width="20" fill="#ffffff"/>
  <ellipse stroke="#f9fafc" ry="6.25" rx="5.625" id="svg_22" cy="422.50024" cx="278.74997" stroke-width="20" fill="#ffffff"/>
  <ellipse stroke="#f9fafc" ry="6.25" rx="5.625" id="svg_23" cy="301.2502" cx="222.49995" stroke-width="20" fill="#ffffff"/>
  <ellipse stroke="#f9fafc" ry="6.25" rx="5.625" id="svg_24" cy="487.50025" cx="223.74995" stroke-width="20" fill="#ffffff"/>
  <ellipse stroke="#f9fafc" ry="6.25" rx="5.625" id="svg_25" cy="483.75025" cx="279.99997" stroke-width="20" fill="#ffffff"/>
  <ellipse stroke="#f9fafc" ry="6.25" rx="5.625" id="svg_26" cy="208.75017" cx="393.75" stroke-width="20" fill="#ffffff"/>
  <ellipse stroke="#f9fafc" ry="6.25" rx="5.625" id="svg_28" cy="206.25017" cx="466.25002" stroke-width="20" fill="#ffffff"/>
  <ellipse stroke="#f9fafc" ry="6.25" rx="5.625" id="svg_29" cy="265.00019" cx="393.75" stroke-width="20" fill="#ffffff"/>
  <ellipse stroke="#f9fafc" ry="6.25" rx="5.625" id="svg_30" cy="262.50019" cx="466.25002" stroke-width="20" fill="#ffffff"/>
  <ellipse stroke="#f9fafc" ry="6.25" rx="5.625" id="svg_31" cy="323.7502" cx="395" stroke-width="20" fill="#ffffff"/>
  <ellipse stroke="#f9fafc" ry="6.25" rx="5.625" id="svg_32" cy="317.5002" cx="460.00002" stroke-width="20" fill="#ffffff"/>
  <ellipse stroke="#f9fafc" ry="6.25" rx="5.625" id="svg_33" cy="381.25022" cx="393.75" stroke-width="20" fill="#ffffff"/>
  <ellipse stroke="#f9fafc" ry="6.25" rx="5.625" id="svg_34" cy="373.75022" cx="465.00002" stroke-width="20" fill="#ffffff"/>
  <ellipse stroke="#f9fafc" ry="6.25" rx="5.625" id="svg_35" cy="436.25023" cx="393.75" stroke-width="20" fill="#ffffff"/>
  <ellipse stroke="#f9fafc" ry="6.25" rx="5.625" id="svg_36" cy="433.75023" cx="466.25002" stroke-width="20" fill="#ffffff"/>
  <ellipse stroke="#f9fafc" ry="6.25" rx="5.625" id="svg_37" cy="492.50026" cx="463.75002" stroke-width="20" fill="#ffffff"/>
  <ellipse stroke="#f9fafc" ry="6.25" rx="5.625" id="svg_38" cy="496.25026" cx="390" stroke-width="20" fill="#ffffff"/>
  <ellipse stroke="#f9fafc" ry="6.25" rx="5.625" id="svg_39" cy="296.25019" cx="582.50006" stroke-width="20" fill="#ffffff"/>
  <ellipse stroke="#f9fafc" ry="6.25" rx="5.625" id="svg_40" cy="298.75019" cx="640.00008" stroke-width="20" fill="#ffffff"/>
  <ellipse stroke="#f9fafc" ry="6.25" rx="5.625" id="svg_41" cy="355.00022" cx="582.50006" stroke-width="20" fill="#ffffff"/>
  <ellipse stroke="#f9fafc" ry="6.25" rx="5.625" id="svg_42" cy="421.25023" cx="582.50006" stroke-width="20" fill="#ffffff"/>
  <ellipse stroke="#f9fafc" ry="6.25" rx="5.625" id="svg_43" cy="495.00026" cx="583.75006" stroke-width="20" fill="#ffffff"/>
  <ellipse stroke="#f9fafc" ry="6.25" rx="5.625" id="svg_44" cy="352.50022" cx="641.25008" stroke-width="20" fill="#ffffff"/>
  <ellipse stroke="#f9fafc" ry="6.25" rx="5.625" id="svg_45" cy="416.25023" cx="643.75008" stroke-width="20" fill="#ffffff"/>
  <ellipse stroke="#f9fafc" ry="6.25" rx="5.625" id="svg_46" cy="482.50026" cx="640.00008" stroke-width="20" fill="#ffffff"/>
  <ellipse ry="32.50001" rx="36.87501" id="svg_47" cy="201.25017" cx="246.24996" stroke-width="20" stroke="#3547ad" fill="#fff"/>
  <ellipse stroke="#3547ad" ry="26.87501" rx="27.50001" id="svg_48" cy="190.62517" cx="615.62506" stroke-width="20" fill="#fff"/>
  <ellipse ry="31.25001" rx="35.00001" id="svg_49" cy="103.75014" cx="429.37501" stroke-width="20" stroke="#3547ad" fill="#fff"/>
  <line id="svg_54" y2="123.75015" x2="379.37499" y1="165.00016" x1="293.12497" stroke-width="20" stroke="#3547ad" fill="none"/>
  <line id="svg_55" y2="163.75016" x2="571.87505" y1="123.75015" x1="483.12502" stroke-width="20" stroke="#3547ad" fill="none"/>
  <line id="svg_60" y2="635.0003" x2="664.37508" y1="636.2503" x1="135.62492" stroke-width="30" stroke="#3547ad" fill="none"/>
  <ellipse ry="17.50001" rx="18.75001" id="svg_61" cy="632.5003" cx="566.87505" stroke-width="10" stroke="#eff1fc" fill="#3547ad"/>
 </g>
</svg>